<svg xmlns="http://www.w3.org/2000/svg" xmlns:xlink="http://www.w3.org/1999/xlink" width="2820" zoomAndPan="magnify" viewBox="0 0 2115 591.000005" height="788" preserveAspectRatio="xMidYMid meet" version="1.0"><defs><g/><clipPath id="ab0871a42c"><path d="M 1.785156 0 L 2113.210938 0 L 2113.210938 590 L 1.785156 590 Z M 1.785156 0 " clip-rule="nonzero"/></clipPath><clipPath id="72cbfea93c"><path d="M 1.785156 13 L 2113.210938 13 L 2113.210938 590 L 1.785156 590 Z M 1.785156 13 " clip-rule="nonzero"/></clipPath><clipPath id="6c820314bb"><path d="M 0.785156 37 L 423 37 L 423 467 L 0.785156 467 Z M 0.785156 37 " clip-rule="nonzero"/></clipPath><clipPath id="2bdee8822a"><rect x="0" width="2113" y="0" height="577"/></clipPath></defs><g clip-path="url(#ab0871a42c)"><path fill="#ffffff" d="M 1.785156 0 L 2113.214844 0 L 2113.214844 590 L 1.785156 590 Z M 1.785156 0 " fill-opacity="1" fill-rule="nonzero"/><path fill="#ffffff" d="M 1.785156 0 L 2113.214844 0 L 2113.214844 590 L 1.785156 590 Z M 1.785156 0 " fill-opacity="1" fill-rule="nonzero"/></g><g clip-path="url(#72cbfea93c)"><g transform="matrix(1, 0, 0, 1, 1, 13)"><g clip-path="url(#2bdee8822a)"><g clip-path="url(#6c820314bb)"><g fill="#000000" fill-opacity="1"><g transform="translate(0.884485, 466.053948)"><g><path d="M 248.78125 -428.484375 L 421.734375 0 L 316.8125 0 L 285.140625 -85.703125 L 122.046875 -85.703125 L 90.375 0 L -14.546875 0 L 158.40625 -428.484375 Z M 251.890625 -171.390625 L 204.109375 -296.046875 L 203.078125 -296.046875 L 155.296875 -171.390625 Z M 251.890625 -171.390625 "/></g></g></g></g><g fill="#000000" fill-opacity="1"><g transform="translate(408.058036, 466.053948)"><g><path d="M 31.15625 0 L 31.15625 -446.65625 L 123.09375 -446.65625 L 123.09375 -238.390625 L 124.125 -238.390625 C 148.019531 -262.285156 173.472656 -274.234375 200.484375 -274.234375 C 213.640625 -274.234375 226.707031 -272.5 239.6875 -269.03125 C 252.675781 -265.570312 265.140625 -260.207031 277.078125 -252.9375 C 289.023438 -245.664062 298.722656 -235.363281 306.171875 -222.03125 C 313.617188 -208.695312 317.34375 -193.203125 317.34375 -175.546875 L 317.34375 0 L 225.40625 0 L 225.40625 -150.625 C 225.40625 -164.46875 220.988281 -176.582031 212.15625 -186.96875 C 203.332031 -197.363281 191.820312 -202.5625 177.625 -202.5625 C 163.769531 -202.5625 151.21875 -197.191406 139.96875 -186.453125 C 128.71875 -175.722656 123.09375 -163.78125 123.09375 -150.625 L 123.09375 0 Z M 31.15625 0 "/></g></g></g><g fill="#000000" fill-opacity="1"><g transform="translate(751.351063, 466.053948)"><g><path d="M 31.15625 0 L 31.15625 -266.4375 L 123.09375 -266.4375 L 123.09375 -238.390625 L 124.125 -238.390625 C 148.019531 -262.285156 173.472656 -274.234375 200.484375 -274.234375 C 219.867188 -274.234375 238.046875 -270.25 255.015625 -262.28125 C 271.984375 -254.320312 284.796875 -242.03125 293.453125 -225.40625 C 320.453125 -257.957031 349.878906 -274.234375 381.734375 -274.234375 C 410.128906 -274.234375 434.539062 -266.269531 454.96875 -250.34375 C 475.394531 -234.414062 485.609375 -209.484375 485.609375 -175.546875 L 485.609375 0 L 393.6875 0 L 393.6875 -150.625 C 393.6875 -164.8125 389.789062 -176.664062 382 -186.1875 C 374.207031 -195.71875 362.519531 -200.484375 346.9375 -200.484375 C 333.4375 -200.484375 323.132812 -196.410156 316.03125 -188.265625 C 308.9375 -180.128906 305.046875 -170.347656 304.359375 -158.921875 L 304.359375 0 L 212.421875 0 L 212.421875 -150.625 C 212.421875 -164.8125 208.523438 -176.664062 200.734375 -186.1875 C 192.941406 -195.71875 181.257812 -200.484375 165.6875 -200.484375 C 151.488281 -200.484375 140.835938 -196.066406 133.734375 -187.234375 C 126.640625 -178.398438 123.09375 -167.925781 123.09375 -155.8125 L 123.09375 0 Z M 31.15625 0 "/></g></g></g><g fill="#000000" fill-opacity="1"><g transform="translate(1262.91482, 466.053948)"><g><path d="M 300.71875 -120.5 L 107.515625 -120.5 C 107.515625 -101.800781 113.570312 -87.945312 125.6875 -78.9375 C 137.800781 -69.9375 150.957031 -65.4375 165.15625 -65.4375 C 180.050781 -65.4375 191.828125 -67.425781 200.484375 -71.40625 C 209.140625 -75.394531 219.003906 -83.273438 230.078125 -95.046875 L 296.5625 -61.8125 C 268.863281 -15.40625 222.8125 7.796875 158.40625 7.796875 C 118.238281 7.796875 83.785156 -5.96875 55.046875 -33.5 C 26.316406 -61.03125 11.953125 -94.179688 11.953125 -132.953125 C 11.953125 -171.734375 26.316406 -204.972656 55.046875 -232.671875 C 83.785156 -260.378906 118.238281 -274.234375 158.40625 -274.234375 C 200.644531 -274.234375 235.007812 -262.023438 261.5 -237.609375 C 287.988281 -213.203125 301.234375 -178.316406 301.234375 -132.953125 C 301.234375 -126.722656 301.0625 -122.570312 300.71875 -120.5 Z M 110.109375 -171.390625 L 211.390625 -171.390625 C 209.304688 -185.242188 203.847656 -195.890625 195.015625 -203.328125 C 186.191406 -210.773438 174.851562 -214.5 161 -214.5 C 145.769531 -214.5 133.648438 -210.515625 124.640625 -202.546875 C 115.640625 -194.585938 110.796875 -184.203125 110.109375 -171.390625 Z M 110.109375 -171.390625 "/></g></g></g><g fill="#000000" fill-opacity="1"><g transform="translate(1576.08534, 466.053948)"><g><path d="M 49.34375 -32.96875 C 24.414062 -60.15625 11.953125 -93.484375 11.953125 -132.953125 C 11.953125 -172.429688 24.414062 -205.847656 49.34375 -233.203125 C 74.269531 -260.554688 105.953125 -274.234375 144.390625 -274.234375 C 179.703125 -274.234375 208.785156 -263.148438 231.640625 -240.984375 L 231.640625 -446.65625 L 323.578125 -446.65625 L 323.578125 0 L 232.6875 0 L 232.6875 -30.125 L 231.640625 -30.125 C 208.785156 -4.84375 179.703125 7.796875 144.390625 7.796875 C 105.953125 7.796875 74.269531 -5.789062 49.34375 -32.96875 Z M 127.5 -178.140625 C 115.5625 -166.367188 109.59375 -151.304688 109.59375 -132.953125 C 109.59375 -114.609375 115.300781 -99.632812 126.71875 -88.03125 C 138.144531 -76.4375 153.207031 -70.640625 171.90625 -70.640625 C 189.914062 -70.640625 204.71875 -76.523438 216.3125 -88.296875 C 227.914062 -100.066406 233.71875 -114.953125 233.71875 -132.953125 C 233.71875 -151.304688 227.742188 -166.367188 215.796875 -178.140625 C 203.847656 -189.910156 189.21875 -195.796875 171.90625 -195.796875 C 154.25 -195.796875 139.445312 -189.910156 127.5 -178.140625 Z M 127.5 -178.140625 "/></g></g></g><g fill="#000000" fill-opacity="1"><g transform="translate(1930.804155, 466.053948)"><g><path d="M 90.375 -111.140625 C 106.988281 -111.140625 121.09375 -105.335938 132.6875 -93.734375 C 144.289062 -82.140625 150.09375 -68.035156 150.09375 -51.421875 C 150.09375 -35.140625 144.289062 -21.195312 132.6875 -9.59375 C 121.09375 2 106.988281 7.796875 90.375 7.796875 C 74.09375 7.796875 60.148438 2 48.546875 -9.59375 C 36.953125 -21.195312 31.15625 -35.140625 31.15625 -51.421875 C 31.15625 -68.035156 36.953125 -82.140625 48.546875 -93.734375 C 60.148438 -105.335938 74.09375 -111.140625 90.375 -111.140625 Z M 90.375 -111.140625 "/></g></g></g></g></g></g></svg>